<svg width="72" height="72" viewBox="0 0 72 72" fill="none" xmlns="http://www.w3.org/2000/svg">
<path d="M36.29 7.35C31.511 7.35 28.781 9.594 28.134 12.501L44.444 12.501C43.797 9.594 41.068 7.35 36.289 7.35H36.29Z" fill="#D0CFCE"/>
<path d="M26.5 61.59C26.5 61.59 38.73 65.047 44.7 60.321C50.669 55.595 52.351 44.721 52.351 44.721C51.766 42.508 48.125 36.228 48.125 36.228C47.585 35.317 45.872 28.247 44.876 24.368H27.706C26.84 27.213 23.356 38.018 22.901 39.078C22.317 40.441 21.321 43.094 20.818 44.095C19.608 46.504 20.28 48.55 20.28 51.122C20.28 56.609 22.182 58.848 26.501 61.592L26.5 61.59Z" fill="#FCEA2B"/>
<path d="M36.29 64.798C44.822 64.798 52.79 58.046 52.79 49.518C52.79 48.439 53.054 45.027 51.573 45.027C51.573 45.027 49.18 52.852 43.211 57.577C37.242 62.302 27.691 61.302 27.691 61.302C28.355 63.347 33.241 64.801 36.287 64.801L36.29 64.798Z" fill="white"/>
<path d="M19.4501 48.25C19.4501 44.265 21.235 42.342 23.204 37.75C23.707 36.578 27.4151 24.37 27.4151 24.37H44.585C44.585 24.37 47.5661 36.04 48.1311 36.99C50.501 40.988 52.55 43.9 52.55 48.25C52.55 57.391 45.14 64.8 36 64.8C26.859 64.8 19.4501 57.39 19.4501 48.25Z" stroke="black" stroke-width="2" stroke-miterlimit="10" stroke-linecap="round" stroke-linejoin="round"/>
<path d="M36 24.78V36.72V24.78Z" fill="black"/>
<path d="M36 24.78V36.72" stroke="black" stroke-width="2" stroke-miterlimit="10" stroke-linecap="round" stroke-linejoin="round"/>
<path d="M30.0301 36.72H41.9701Z" fill="black"/>
<path d="M30.0301 36.72H41.9701" stroke="black" stroke-width="2" stroke-miterlimit="10" stroke-linecap="round" stroke-linejoin="round"/>
<path d="M27.84 13.21C27.84 9.97 31.491 7.343 35.995 7.343C40.499 7.343 44.15 9.97 44.15 13.21L27.84 13.21Z" stroke="black" stroke-width="1.696" stroke-miterlimit="10" stroke-linecap="round" stroke-linejoin="round"/>
<path d="M44.01 17.02L27.99 20.49Z" fill="black"/>
<path d="M44.01 17.02L27.99 20.49" stroke="black" stroke-width="1.965" stroke-miterlimit="10" stroke-linecap="round" stroke-linejoin="round"/>
<path d="M33.8 15.93L28.0201 17.11Z" fill="black"/>
<path d="M33.8 15.93L28.0201 17.11" stroke="black" stroke-width="2" stroke-miterlimit="10" stroke-linecap="round" stroke-linejoin="round"/>
<path d="M43.9801 20.4L38.2001 21.58Z" fill="black"/>
<path d="M43.9801 20.4L38.2001 21.58" stroke="black" stroke-width="2" stroke-miterlimit="10" stroke-linecap="round" stroke-linejoin="round"/>
</svg>
